<svg id="Capa_1" enable-background="new 0 0 512.004 512.004" height="512" viewBox="0 0 512.004 512.004" width="512" xmlns="http://www.w3.org/2000/svg"><g><path d="m256.002 16.014 15 13.99-15 16.01c-16.735-.102-33.258 1.802-49.29 5.57 7.89 3.93 11.06 13.76 6.43 21.37-4.3 7.16-13.61 9.36-20.59 5.12l-30.25-18.2c-6.5-3.74-9.18-12.54-5.87-19.27l14.99-31.97c3.51-7.5 12.44-10.73 19.95-7.21 8.13 3.76 10.94 13.74 6.53 21.41 18.881-4.61 38.355-6.925 58.1-6.82z" fill="#6aabff"/><path d="m256.002 461.794 17.773 16.589-17.773 13.401c-5.37 0-10.72-.19-16.07-.56-63.96-4.39-122.38-33.41-164.5-81.74-42.13-48.32-62.91-110.15-58.53-174.11.56-8.26 7.72-14.5 15.99-13.94 8.26.57 14.5 7.73 13.94 15.99-3.84 55.96 14.35 110.07 51.21 152.35s87.98 67.68 143.94 71.52c4.69.32 9.36.49 14.02.5z" fill="#6aabff"/><g><path d="m60.332 74.634 34.172 48.83-34.172 29.54h-45.33c-8.28 0-15-6.72-15-15v-3.04c0-33.32 27.01-60.33 60.33-60.33z" fill="#5980ff"/><path d="m60.342.004 23.952 45.114-23.952 29.516h-.01c-20.61 0-37.32-16.7-37.32-37.31s16.71-37.32 37.32-37.32h.01z" fill="#d58678"/><path d="m97.652 37.324c0 20.61-16.7 37.3-37.31 37.31v-74.63c20.61.01 37.31 16.71 37.31 37.32z" fill="#c76e59"/><path d="m120.662 134.964v3.04c0 8.28-6.72 15-15 15h-45.33v-78.37c16.66 0 31.74 6.75 42.66 17.67s17.67 26 17.67 42.66z" fill="#4c4cff"/></g><g><path d="m451.672 433.634 34.172 48.83-34.172 29.54h-45.33c-8.28 0-15-6.72-15-15v-3.04c0-33.32 27.01-60.33 60.33-60.33z" fill="#ff637b"/><path d="m451.682 359.004 23.952 45.114-23.952 29.516h-.01c-20.61 0-37.32-16.7-37.32-37.31s16.71-37.32 37.32-37.32z" fill="#ffccbd"/><path d="m488.992 396.324c0 20.61-16.7 37.3-37.31 37.31v-74.63c20.61.01 37.31 16.71 37.31 37.32z" fill="#ffbda9"/><path d="m512.002 493.964v3.04c0 8.28-6.72 15-15 15h-45.33v-78.37c16.66 0 31.74 6.75 42.66 17.67s17.67 26 17.67 42.66z" fill="#e53950"/></g><path d="m340.662 471.954c-.2.5-17.85 32.33-17.85 32.33-2.74 4.94-7.85 7.72-13.13 7.72-2.46 0-4.96-.6-7.26-1.89-7.86-4.3-9.98-14.47-5.05-21.81-13.61 2.36-27.49 3.52-41.37 3.48v-29.99c11.63.03 23.17-.9 34.54-2.77l-1.25-.87c-6.79-4.75-8.45-14.1-3.7-20.89s14.1-8.45 20.89-3.7l28.93 20.22c5.74 3.88 8.03 11.84 5.25 18.17z" fill="#5980ff"/><path d="m495.002 256.004c0 8.28-6.72 15-15 15s-15-6.72-15-15c0-115.46-93.67-209.46-209-209.99v-30c63.73.25 123.61 25.19 168.7 70.29 45.34 45.33 70.3 105.6 70.3 169.7z" fill="#5980ff"/><g><g><path d="m256.002 120.004 45 136.5-45 135.5h-12.043c-8.17 0-14.95-6.312-15.531-14.462l-2.575-30.854c-4.36-1.454-8.596-3.208-12.655-5.253l-24.2 20.566c-6.167 5.346-15.427 5.014-21.21-.758l-17.026-17.026c-5.772-5.783-6.104-15.043-.758-21.21l20.566-24.2c-2.045-4.059-3.8-8.285-5.253-12.655l-30.854-2.575c-8.15-.581-14.462-7.361-14.462-15.531v-24.086c0-8.17 6.312-14.95 14.462-15.531l30.854-2.575c1.453-4.371 3.208-8.596 5.253-12.655l-20.566-24.2c-5.347-6.167-5.014-15.427.758-21.21l17.026-17.026c5.783-5.772 15.043-6.104 21.21-.758l24.2 20.566c4.059-2.045 8.295-3.8 12.655-5.253l2.575-30.854c.581-8.149 7.361-14.462 15.531-14.462h12.043z" fill="#5c5c99"/><path d="m392.002 243.961v24.086c0 8.17-6.312 14.949-14.462 15.531l-30.854 2.575c-1.453 4.371-3.208 8.596-5.253 12.655l20.566 24.2c5.347 6.167 5.014 15.427-.758 21.21l-17.026 17.026c-5.783 5.772-15.043 6.104-21.21.758l-24.2-20.566c-4.059 2.045-8.295 3.8-12.655 5.253l-2.575 30.854c-.581 8.149-7.361 14.462-15.531 14.462h-12.043v-272h12.043c8.17 0 14.95 6.312 15.531 14.462l2.575 30.854c4.36 1.454 8.596 3.208 12.655 5.253l24.2-20.566c6.167-5.346 15.427-5.014 21.21.758l17.026 17.026c5.772 5.783 6.104 15.043.758 21.21l-20.566 24.2c2.045 4.059 3.8 8.285 5.253 12.655l30.854 2.575c8.15.58 14.462 7.359 14.462 15.529z" fill="#333373"/></g><circle cx="256.002" cy="256.504" fill="#b3d9ff" r="28"/><g><g><path d="m256.002 241.004 12-15.599-12-14.401c-24.81 0-45 20.19-45 45s20.19 45 45 45l12-19.234-12-10.766c-8.27 0-15-6.73-15-15s6.73-15 15-15z" fill="#333373"/></g></g><path d="m301.002 256.004c0 24.81-20.19 45-45 45v-30c8.27 0 15-6.73 15-15s-6.73-15-15-15v-30c24.81 0 45 20.19 45 45z" fill="#17174d"/></g></g></svg>
